<svg version="1.2" xmlns="http://www.w3.org/2000/svg" viewBox="0 0 128 128" width="128" height="128">
	<title>Icon</title>
	<style>
		.s0 { opacity: .31;fill: #9248e6 } 
		.s1 { opacity: .31;fill: #f95f2f } 
		.s2 { opacity: .33;fill: #fba84d } 
		.s3 { opacity: .71;fill: #9248e6 } 
		.s4 { opacity: .74;fill: #fa9141 } 
		.s5 { opacity: .99;fill: #f9d94e } 
		.s6 { opacity: .99;fill: #fa622d } 
		.s7 { opacity: 1;fill: #a046eb } 
		.s8 { opacity: .14;fill: #7e48d0 } 
		.s9 { opacity: .31;fill: #ef1e61 } 
		.s10 { opacity: .7;fill: #ef1e60 } 
		.s11 { opacity: .99;fill: #724eda } 
		.s12 { opacity: 1;fill: #fd964b } 
		.s13 { opacity: 1;fill: #ee1e62 } 
	</style>
	<g id="Flare copy">
		<path id="Path 0" class="s0" d="m111.3 47.2q-0.8 1.3 0.5 0.5c0.6-0.4 1.2-0.9 1.2-1.2 0-0.3-0.2-0.5-0.5-0.5-0.2 0-0.8 0.6-1.2 1.2zm-10 10q-0.8 1.3 0.5 0.5c0.6-0.4 1.2-0.9 1.2-1.2 0-0.3-0.2-0.5-0.5-0.5-0.2 0-0.8 0.6-1.2 1.2zm18.6 2.8c0 0.8 0.4 1.2 0.8 0.7 0.5-0.4 0.5-1 0-1.5-0.4-0.4-0.8 0-0.8 0.8zm-46.6 14.2q-0.8 1.3 0.5 0.5c0.6-0.4 1.2-0.9 1.2-1.2 0-0.3-0.2-0.5-0.5-0.5-0.2 0-0.8 0.6-1.2 1.2zm-6.9 6l-1.9 2.3c3.5-3.1 4.6-4.1 4.5-4.3 0-0.1-0.2-0.2-0.4-0.2-0.1 0-1.2 1-2.2 2.2zm46.9 0q-0.8 1.3 0.5 0.5c0.6-0.4 1.2-0.9 1.2-1.2 0-0.3-0.2-0.5-0.5-0.5-0.2 0-0.8 0.6-1.2 1.2zm-5.4 4.5c-1.3 1.7-1.3 1.7 0.4 0.3 1-0.8 1.8-1.6 1.7-1.8 0-0.1-0.2-0.2-0.4-0.2-0.2 0-1 0.8-1.7 1.7zm-46.6 1.5q-0.8 1.3 0.5 0.5c0.6-0.4 1.2-0.9 1.2-1.2 0-0.3-0.2-0.5-0.5-0.5-0.2 0-0.8 0.6-1.2 1.2zm42 2q-0.8 1.3 0.5 0.5c0.6-0.4 1.2-0.9 1.2-1.2 0-0.3-0.2-0.5-0.5-0.5-0.2 0-0.8 0.6-1.2 1.2zm-44 1q-0.8 1.3 0.5 0.5c0.6-0.4 1.2-0.9 1.2-1.2 0-0.3-0.2-0.5-0.5-0.5-0.2 0-0.8 0.6-1.2 1.2zm-5 7q-0.8 1.3 0.5 0.5c0.6-0.4 1.2-0.9 1.2-1.2 0-0.3-0.2-0.5-0.5-0.5-0.2 0-0.8 0.6-1.2 1.2zm37 1q-0.8 1.3 0.5 0.5c0.6-0.4 1.2-0.9 1.2-1.2 0-0.3-0.2-0.5-0.5-0.5-0.2 0-0.8 0.6-1.2 1.2zm-40.4 3.5c-1.3 1.7-1.3 1.7 0.4 0.3 1-0.8 1.8-1.6 1.7-1.8 0-0.1-0.2-0.2-0.4-0.2-0.2 0-1 0.8-1.7 1.7zm34.5 1.5l-1.9 2.3c3.5-3.1 4.6-4.1 4.5-4.3 0-0.1-0.2-0.2-0.4-0.2-0.1 0-1.2 1-2.2 2.2zm-43.4 8.5l-5.5 5.8c8.9-8.5 11.5-11.1 11.5-11.3 0-0.1-0.1-0.2-0.3-0.2-0.1 0-2.7 2.6-5.7 5.7zm33.3 4.5q-0.8 1.3 0.5 0.5c0.6-0.4 1.2-0.9 1.2-1.2 0-0.3-0.2-0.5-0.5-0.5-0.2 0-0.8 0.6-1.2 1.2zm-11.4 11.5c-1.3 1.7-1.3 1.7 0.4 0.3 1-0.8 1.8-1.6 1.7-1.8 0-0.1-0.2-0.2-0.4-0.2-0.2 0-1 0.8-1.7 1.7zm-9.6 1c0.4 0.5 1 0.5 1.4 0 0.3-0.4 0-0.7-0.8-0.7-0.8 0-1.1 0.3-0.6 0.7z"/>
		<path id="Path 1" class="s1" d="m20.9 35.7c-1.4 1.7-1.6 2.1-0.4 1 1.1-0.9 2.2-1.5 2.5-1.3 0.3 0.2 0.5-0.2 0.6-1 0-0.8 0-1.4-0.1-1.4-0.1 0-1.3 1.2-2.6 2.7zm1.4 5.8c0 2.4 0.1 3 0.4 1.5 0.2-1.4 0.2-3.2 0-4-0.3-0.8-0.5 0.3-0.4 2.5zm-6-0.3q-0.8 1.3 0.5 0.5c0.6-0.4 1.2-0.9 1.2-1.2 0-0.3-0.2-0.5-0.5-0.5-0.2 0-0.8 0.6-1.2 1.2zm9.1 7.8c0.3 0.5 0.8 1 1.1 1 0.3 0 0.3-0.5 0-1-0.3-0.5-0.8-1-1.1-1-0.3 0-0.3 0.5 0 1zm7.4 2.7c2.2 0.2 3 0.7 2.5 1.5q-0.8 1.3 0.5 0.5c0.6-0.4 1.2-1.2 1.2-1.7 0-0.6-1.7-0.9-3.7-0.8-3.7 0.1-3.7 0.1-0.5 0.5zm-22.9 3.3c0 0.8 0.4 1.2 0.8 0.7 0.4-0.4 0.4-1 0-1.5-0.4-0.4-0.8 0-0.8 0.8zm22.4 0.2q-0.8 1.3 0.5 0.5c0.6-0.4 1.2-0.9 1.2-1.2 0-0.3-0.2-0.5-0.5-0.5-0.2 0-0.8 0.6-1.2 1.2zm-23.4 3.8c0 0.8 0.4 1.2 0.8 0.7 0.4-0.4 0.4-1 0-1.5-0.4-0.4-0.8 0-0.8 0.8zm17 1.7l-2.4 2.8c4.3-3.9 5.5-5.1 5.5-5.3 0-0.1-0.1-0.2-0.3-0.2-0.2 0-1.5 1.2-2.8 2.7zm-17.8 2.8c0 1.1 0.2 1.4 0.3 0.7 0.1-0.7 0.1-1.6-0.1-2-0.2-0.4-0.3 0.2-0.2 1.3z"/>
		<path id="Path 2" class="s2" d="m93.3 0.7c0.4 0.5 1 0.5 1.4 0.1 0.3-0.5 0-0.8-0.8-0.8-0.8 0-1.1 0.3-0.6 0.7zm5.1 5.3c0.3 0.6 0.8 1 1.1 1 0.3 0 0.3-0.4 0-1-0.3-0.5-0.8-1-1.1-1-0.3 0-0.3 0.5 0 1zm-6.5 2.5c0 0.6 0.8 1.7 1.8 2.5 1.7 1.4 1.7 1.4 0.3-0.5-0.8-1.1-1.6-2.2-1.7-2.5-0.2-0.3-0.4-0.1-0.4 0.5zm10.5 0.5c0.3 0.6 0.8 1 1.1 1 0.3 0 0.3-0.4 0-1-0.3-0.6-0.8-1-1.1-1-0.3 0-0.3 0.4 0 1zm-4.9 6c1.1 1.1 2.2 2.1 2.5 2.1 0.3 0-0.2-0.9-1.1-2.1-0.8-1.1-2-2-2.5-2-0.5-0.1 0 0.9 1.1 2zm3.5 2.3c-0.1 0.1 0.7 0.9 1.7 1.7 1.6 1.4 1.7 1.3 0.8-0.2-0.6-1-1.4-1.8-1.8-1.8-0.4 0-0.7 0.1-0.7 0.3zm6 7.7c0 0.6 0.5 1.2 1 1.5 0.6 0.3 0.8-0.2 0.6-1-0.3-0.8-0.7-1.5-1-1.5-0.3 0-0.6 0.4-0.6 1z"/>
		<path id="Path 3" class="s3" d="m106.9 52.8l-3.4 3.7c5.8-5.4 7.5-7.1 7.5-7.2 0-0.2-0.1-0.3-0.3-0.3-0.2 0-1.9 1.7-3.8 3.8zm11-0.8c0 0.8 0.4 1.2 0.8 0.8 0.4-0.5 0.4-1.1 0-1.5-0.4-0.5-0.8-0.1-0.8 0.7zm1 4c0 0.8 0.4 1.2 0.8 0.8 0.4-0.5 0.4-1.1 0-1.5-0.4-0.5-0.8-0.1-0.8 0.7zm1.2 6.5c0 1.1 0.2 1.4 0.3 0.7 0.1-0.7 0.1-1.6-0.1-2-0.2-0.4-0.3 0.2-0.2 1.3zm-41.8 8.7q-0.8 1.3 0.4 0.5c0.7-0.4 1.3-0.9 1.3-1.2 0-0.3-0.2-0.5-0.5-0.5-0.2 0-0.8 0.6-1.2 1.2zm-7 5q-0.8 1.3 0.4 0.5c0.7-0.4 1.3-0.9 1.3-1.2 0-0.3-0.2-0.5-0.5-0.5-0.2 0-0.8 0.6-1.2 1.2zm45.1 1.1l-1.9 2.2c3.5-3.1 4.6-4.1 4.5-4.2 0-0.2-0.2-0.3-0.4-0.3-0.1 0-1.2 1-2.2 2.3zm-6.1 4.9q-0.8 1.3 0.4 0.5c0.7-0.4 1.3-0.9 1.3-1.2 0-0.3-0.2-0.5-0.5-0.5-0.2 0-0.8 0.6-1.2 1.2zm-47 2q-0.8 1.3 0.4 0.5c0.7-0.4 1.3-0.9 1.3-1.2 0-0.3-0.2-0.5-0.5-0.5-0.2 0-0.8 0.6-1.2 1.2zm37 6q-0.8 1.3 0.4 0.5c0.7-0.4 1.3-0.9 1.3-1.2 0-0.3-0.2-0.5-0.5-0.5-0.2 0-0.8 0.6-1.2 1.2zm-4 3q-0.8 1.3 0.4 0.5c0.7-0.4 1.3-0.9 1.3-1.2 0-0.3-0.2-0.5-0.5-0.5-0.2 0-0.8 0.6-1.2 1.2zm-7.4 5.6c-1.3 1.6-1.3 1.6 0.4 0.2 1-0.8 1.8-1.6 1.7-1.7 0-0.2-0.2-0.3-0.4-0.3-0.2 0-1 0.8-1.7 1.8zm-40 5c-1.3 1.6-1.3 1.6 0.4 0.2 1-0.8 1.8-1.6 1.7-1.7 0-0.2-0.2-0.3-0.4-0.3-0.2 0-1 0.8-1.7 1.8zm33 2c-1.3 1.6-1.3 1.6 0.4 0.2 1-0.8 1.8-1.6 1.7-1.7 0-0.2-0.2-0.3-0.4-0.3-0.2 0-1 0.8-1.7 1.8zm-2.6 3.4q-0.8 1.3 0.4 0.5c0.7-0.4 1.3-0.9 1.3-1.2 0-0.3-0.2-0.5-0.5-0.5-0.2 0-0.8 0.6-1.2 1.2zm-8.4 10.6l-3.4 3.7c5.8-5.4 7.5-7.1 7.5-7.2 0-0.2-0.1-0.3-0.3-0.3-0.2 0-1.9 1.7-3.8 3.8zm-13.9 7.9c0.8 0.2 1.7 0.2 1.9-0.1 0.2-0.3-0.4-0.6-1.5-0.5-1.4 0-1.5 0.2-0.4 0.6z"/>
		<path id="Path 4" class="s4" d="m29.3 57.2q-0.8 1.3 0.4 0.5c0.7-0.4 1.3-0.9 1.3-1.2 0-0.3-0.2-0.5-0.5-0.5-0.2 0-0.8 0.6-1.2 1.2zm-7.9 8l-1.9 2.3c3.5-3.1 4.6-4.1 4.5-4.3 0-0.1-0.2-0.2-0.4-0.2-0.1 0-1.2 1-2.2 2.2zm-13.3 1.3c0 1.1 0.2 1.4 0.3 0.7 0.1-0.7 0.1-1.6-0.1-2-0.2-0.4-0.3 0.2-0.2 1.3zm-0.3 10.7c0.1 0.4 0.6 0.8 1.2 0.8 0.6 0 1.2-0.3 1.4-0.8 0.2-0.4-0.3-0.7-1.2-0.8-0.8 0-1.5 0.3-1.4 0.8z"/>
		<path id="Path 5" class="s5" d="m92.4 3.3c-0.3 1.2-0.3 3.2 0 4.5 0.3 1.2 3.6 4.8 7.2 8 3.6 3.1 7.2 6.8 7.9 8.2l1.3 2.5c1.1-5.4 1.2-8.1 0.9-9.5-0.3-1.5-3.3-4.7-7.6-8.3-3.9-3.1-7.1-6.1-7.1-6.7 0-0.5-0.4-1-1-1-0.5 0-1.2 1-1.6 2.3z"/>
		<path id="Path 6" class="s6" d="m18.5 39.8c-1.9 2.6-4.6 7.5-6 11-1.4 3.4-3.1 10.2-3.8 15.2-0.9 7.1-0.9 9.2 0 10.2 1 1.1 3.2-0.7 11-8.9 5.4-5.7 11.4-11.4 13.3-12.8l3.5-2.5c-6.7 0-8.3-0.8-11.3-3.6-3.5-3.5-3.7-3.9-3.1-8.5 0.3-2.7 0.4-4.9 0.2-4.9-0.1 0-1.8 2.1-3.8 4.8z"/>
		<path id="Path 7" class="s7" d="m111.3 48.5c-1.8 2.5-5.7 6.3-8.5 8.4-2.9 2.2-8.5 5.6-12.3 7.7-3.8 2-9.5 5.3-12.5 7.3-3 1.9-7.5 5.6-10 8.1-2.5 2.5-7.7 8.9-11.5 14.4-3.9 5.4-10.5 13.2-14.7 17.2l-7.8 7.4c10.5 4.9 16.4 6.9 20 7.6 3.6 0.8 6.8 1.4 7.3 1.4 0.4 0 3.7-2.8 7.3-6.3 3.6-3.4 8-8.2 9.7-10.7 1.6-2.5 4.4-6 6.1-7.9 1.7-1.8 7.4-6.5 12.6-10.3 5.2-3.9 12.4-9.6 16-12.7 3.6-3.1 6.9-6 7.3-6.6 0.4-0.5 0.6-4.2 0.2-8-0.3-3.9-1.3-10.3-2.4-14.3-1-3.9-2.2-7.2-2.7-7.2-0.5 0.1-2.4 2.1-4.1 4.5z"/>
		<path id="Path 8" class="s8" d="m115.3 89.2q-0.8 1.3 0.5 0.5c0.6-0.4 1.2-0.9 1.2-1.2 0-0.3-0.2-0.5-0.5-0.5-0.2 0-0.8 0.6-1.2 1.2zm-22 16q-0.8 1.3 0.5 0.5c0.6-0.4 1.2-0.9 1.2-1.2 0-0.3-0.2-0.5-0.5-0.5-0.2 0-0.8 0.6-1.2 1.2zm-3.4 3.5c-1.3 1.7-1.3 1.7 0.4 0.3 1-0.8 1.8-1.6 1.7-1.8 0-0.1-0.2-0.2-0.4-0.2-0.2 0-1 0.8-1.7 1.7zm13.5 4.5l-2.9 3.3c5.1-4.7 6.5-6.1 6.5-6.3 0-0.1-0.1-0.2-0.3-0.2-0.2 0-1.7 1.5-3.3 3.2z"/>
		<path id="Path 9" class="s0" d="m109.3 94.2q-0.8 1.3 0.5 0.5c0.6-0.4 1.2-0.9 1.2-1.2 0-0.3-0.2-0.5-0.5-0.5-0.2 0-0.8 0.6-1.2 1.2zm-1 13q-0.8 1.3 0.5 0.5c0.6-0.4 1.2-0.9 1.2-1.2 0-0.3-0.2-0.5-0.5-0.5-0.2 0-0.8 0.6-1.2 1.2z"/>
		<path id="Path 10" class="s9" d="m88 19.3c-0.1 0.1 0.7 0.9 1.7 1.7 1.6 1.4 1.7 1.3 0.8-0.3-0.6-0.9-1.4-1.7-1.8-1.7-0.4 0-0.7 0.1-0.7 0.2zm6 5.3c1.4 1.4 2.7 2.6 3 2.6 0.3 0-0.4-1.2-1.6-2.6-1.2-1.4-2.5-2.5-3-2.5-0.5 0 0.2 1.1 1.6 2.5zm-13.7-0.3q-0.8 1.3 0.4 0.5c0.7-0.4 1.3-0.9 1.3-1.2 0-0.3-0.2-0.5-0.5-0.5-0.2 0-0.8 0.6-1.2 1.2zm-5.4 6.5l-3.4 3.8c5.8-5.4 7.5-7.1 7.5-7.3 0-0.1-0.1-0.2-0.3-0.2-0.2 0-1.9 1.7-3.8 3.7zm27.1 1.5c-0.1 0.2 0.7 1 1.7 1.8 1.6 1.4 1.7 1.3 0.8-0.3-0.6-0.9-1.4-1.7-1.8-1.7-0.4 0-0.7 0.1-0.7 0.2zm-34.7 5q-0.8 1.3 0.5 0.5c0.6-0.4 1.2-0.9 1.2-1.2 0-0.3-0.2-0.5-0.5-0.5-0.2 0-0.8 0.6-1.2 1.2zm36 7q-0.8 1.3 0.5 0.5c0.6-0.4 1.2-0.9 1.2-1.2 0-0.3-0.2-0.5-0.5-0.5-0.2 0-0.8 0.6-1.2 1.2zm-58 8q-0.8 1.3 0.5 0.5c0.6-0.4 1.2-0.9 1.2-1.2 0-0.3-0.2-0.5-0.5-0.5-0.2 0-0.8 0.6-1.2 1.2zm50 0q-0.8 1.3 0.5 0.5c0.6-0.4 1.2-0.9 1.2-1.2 0-0.3-0.2-0.5-0.5-0.5-0.2 0-0.8 0.6-1.2 1.2zm-53.4 2.5c-1.3 1.7-1.3 1.7 0.4 0.3 1-0.8 1.8-1.6 1.7-1.8 0-0.1-0.2-0.2-0.4-0.2-0.2 0-1 0.8-1.7 1.7zm50.4-0.5q-0.8 1.3 0.5 0.5c0.6-0.4 1.2-0.9 1.2-1.2 0-0.3-0.2-0.5-0.5-0.5-0.2 0-0.8 0.6-1.2 1.2zm-5 3q-0.8 1.3 0.5 0.5c0.6-0.4 1.2-0.9 1.2-1.2 0-0.3-0.2-0.5-0.5-0.5-0.2 0-0.8 0.6-1.2 1.2zm-55.3 6.3c-2.5 2.5-4.3 4.5-4 4.5 0.3 0 2.5-2 5-4.5 2.4-2.5 4.2-4.5 3.9-4.5-0.3 0-2.5 2-4.9 4.5zm44.3-0.3q-0.8 1.3 0.5 0.5c0.6-0.4 1.2-0.9 1.2-1.2 0-0.3-0.2-0.5-0.5-0.5-0.2 0-0.8 0.6-1.2 1.2zm-8 5q-0.8 1.3 0.5 0.5c0.6-0.4 1.2-0.9 1.2-1.2 0-0.3-0.2-0.5-0.5-0.5-0.2 0-0.8 0.6-1.2 1.2zm-6.8 6l-4 4.3c6.6-6.2 8.5-8.1 8.5-8.3 0-0.1-0.1-0.2-0.3-0.2-0.2 0-2.1 1.9-4.2 4.3zm-38.1-1l-1.9 2.2c3.5-3.1 4.6-4.1 4.5-4.3 0-0.1-0.2-0.2-0.4-0.2-0.1 0-1.2 1-2.2 2.3zm-9.4 10.2c-2.5 2.5-4.3 4.5-4 4.5 0.3 0 2.5-2 5-4.5 2.4-2.5 4.2-4.5 3.9-4.5-0.3 0-2.5 2-4.9 4.5zm40.9-1.7c-1.3 1.6-1.3 1.6 0.4 0.2 1-0.8 1.8-1.6 1.7-1.7 0-0.2-0.2-0.3-0.4-0.3-0.2 0-1 0.8-1.7 1.8zm-5.6 7.4q-0.8 1.3 0.5 0.5c0.6-0.4 1.2-0.9 1.2-1.2 0-0.3-0.2-0.5-0.5-0.5-0.2 0-0.8 0.6-1.2 1.2zm-2 3q-0.8 1.3 0.5 0.5c0.6-0.4 1.2-0.9 1.2-1.2 0-0.3-0.2-0.5-0.5-0.5-0.2 0-0.8 0.6-1.2 1.2zm-2.4 3.6c-1.3 1.6-1.3 1.6 0.4 0.2 1-0.8 1.8-1.6 1.7-1.7 0-0.2-0.2-0.3-0.4-0.3-0.2 0-1 0.8-1.7 1.8zm-8.9 9.7c-2.5 2.5-4.3 4.5-4 4.5 0.3 0 2.5-2 5-4.5 2.4-2.5 4.2-4.5 3.9-4.5-0.3 0-2.5 2-4.9 4.5zm-19.6-2.5c0.3 0.5 0.8 1 1.1 1 0.3 0 0.3-0.5 0-1-0.3-0.5-0.8-1-1.1-1-0.3 0-0.3 0.5 0 1zm6.1 7c2.2 2.2 4.2 4 4.5 4 0.3 0-1.1-1.8-3.2-4-2-2.2-4-4-4.5-4-0.4 0 1 1.8 3.2 4zm5.8 2.2q-0.8 1.3 0.5 0.5c0.6-0.4 1.2-0.9 1.2-1.2 0-0.3-0.2-0.5-0.5-0.5-0.2 0-0.8 0.6-1.2 1.2z"/>
		<path id="Path 11" class="s2" d="m43.5 6.7c1.6 0.2 4.8 0.2 7 0 2.2-0.2 0.9-0.4-3-0.4-3.9 0-5.6 0.2-4 0.4zm-8.5 1c0 0.5 1.4 2.1 3.2 3.8l3.3 3c-4.3-4.7-5.2-6.3-4.8-6.8 0.3-0.4 0.1-0.7-0.5-0.7-0.7 0-1.2 0.3-1.2 0.7zm24 0c0.8 0.2 1.7 0.2 1.9-0.1 0.2-0.3-0.4-0.6-1.5-0.5-1.4 0-1.5 0.2-0.4 0.6zm5.3 1c0.4 0.5 1 0.5 1.4 0 0.3-0.4 0-0.7-0.8-0.7-0.8 0-1.1 0.3-0.6 0.7zm12 6.5q-0.8 1.3 0.5 0.5c0.6-0.4 1.2-0.9 1.2-1.2 0-0.3-0.2-0.5-0.5-0.5-0.2 0-0.8 0.6-1.2 1.2zm-34.9 0.8c0.3 0.6 0.8 1 1.1 1 0.3 0 0.3-0.4 0-1-0.3-0.6-0.8-1-1.1-1-0.3 0-0.3 0.4 0 1zm32.9 2.2q-0.8 1.3 0.5 0.5c0.6-0.4 1.2-0.9 1.2-1.2 0-0.3-0.2-0.5-0.5-0.5-0.2 0-0.8 0.6-1.2 1.2zm-29.4 5.8c0 0.8 0.4 1.2 0.8 0.7 0.4-0.4 0.4-1 0-1.5-0.4-0.4-0.8 0-0.8 0.8zm1.3 8.5c0 1.9 0.2 2.3 0.5 1 0.2-1.1 0.2-2.5-0.1-3-0.2-0.6-0.4 0.4-0.4 2zm16.1-1.3q-0.8 1.3 0.4 0.5c0.7-0.4 1.3-0.9 1.3-1.2 0-0.3-0.2-0.5-0.5-0.5-0.2 0-0.8 0.6-1.2 1.2zm-5 4q-0.8 1.3 0.4 0.5c0.7-0.4 1.3-0.9 1.3-1.2 0-0.3-0.2-0.5-0.5-0.5-0.2 0-0.8 0.6-1.2 1.2zm-4 3q-0.8 1.3 0.4 0.5c0.7-0.4 1.3-0.9 1.3-1.2 0-0.3-0.2-0.5-0.5-0.5-0.2 0-0.8 0.6-1.2 1.2zm-8.4 1.8c0 0.8 0.4 1.2 0.8 0.7 0.4-0.4 0.4-1 0-1.5-0.4-0.4-0.8 0-0.8 0.8zm-1 3c0 0.8 0.4 1.2 0.8 0.7 0.4-0.4 0.4-1 0-1.5-0.4-0.4-0.8 0-0.8 0.8zm2.4 0.2q-0.8 1.3 0.4 0.5c0.7-0.4 1.3-0.9 1.3-1.2 0-0.3-0.2-0.5-0.5-0.5-0.2 0-0.8 0.6-1.2 1.2z"/>
		<path id="Path 12" class="s10" d="m99 29.5c1.4 1.4 2.7 2.6 3 2.6 0.3 0-0.4-1.2-1.6-2.6-1.2-1.4-2.5-2.5-3-2.5-0.5 0 0.2 1.1 1.6 2.5zm-28.7 5.7q-0.8 1.3 0.4 0.5c0.7-0.4 1.3-0.9 1.3-1.2 0-0.3-0.2-0.5-0.5-0.5-0.2 0-0.8 0.6-1.2 1.2zm35.1 1.8c0.3 0.5 0.8 1 1.1 1 0.3 0 0.3-0.5 0-1-0.3-0.5-0.8-1-1.1-1-0.3 0-0.3 0.5 0 1zm-1.1 5.2q-0.8 1.3 0.4 0.5c0.7-0.4 1.3-0.9 1.3-1.2 0-0.3-0.2-0.5-0.5-0.5-0.2 0-0.8 0.6-1.2 1.2zm-4.9 6l-2.9 3.3c5.1-4.6 6.5-6.1 6.5-6.3 0-0.1-0.1-0.2-0.3-0.2-0.2 0-1.7 1.5-3.3 3.2zm-56.1 6q-0.8 1.3 0.4 0.5c0.7-0.4 1.3-0.9 1.3-1.2 0-0.3-0.2-0.5-0.5-0.5-0.2 0-0.8 0.6-1.2 1.2zm-4.4 3.5c-1.3 1.7-1.3 1.7 0.4 0.3 1-0.8 1.8-1.6 1.7-1.8 0-0.1-0.2-0.2-0.4-0.2-0.2 0-1 0.8-1.7 1.7zm33.4 7.5q-0.8 1.3 0.5 0.5c0.6-0.4 1.2-0.9 1.2-1.2 0-0.3-0.2-0.5-0.5-0.5-0.2 0-0.8 0.6-1.2 1.2zm-46 5q-0.8 1.3 0.5 0.5c0.6-0.4 1.2-0.9 1.2-1.2 0-0.3-0.2-0.5-0.5-0.5-0.2 0-0.8 0.6-1.2 1.2zm-6.4 7.5c-1.3 1.7-1.3 1.7 0.4 0.3 1-0.8 1.8-1.6 1.7-1.8 0-0.1-0.2-0.2-0.4-0.2-0.2 0-1 0.8-1.7 1.7zm22.4 20.5q-0.8 1.3 0.5 0.5c0.6-0.4 1.2-0.9 1.2-1.2 0-0.3-0.2-0.5-0.5-0.5-0.2 0-0.8 0.6-1.2 1.2zm-12 12q-0.8 1.3 0.5 0.5c0.6-0.4 1.2-0.9 1.2-1.2 0-0.3-0.2-0.5-0.5-0.5-0.2 0-0.8 0.6-1.2 1.2z"/>
		<path id="Path 13" class="s3" d="m116.9 89c0 0.8 0.4 1.2 0.8 0.8 0.4-0.5 0.4-1.1 0-1.6-0.4-0.4-0.8 0-0.8 0.8zm-4.6 3.2q-0.8 1.3 0.4 0.5c0.7-0.4 1.3-0.9 1.3-1.2 0-0.3-0.2-0.5-0.5-0.5-0.2 0-0.8 0.6-1.2 1.2zm-7 5q-0.8 1.3 0.4 0.5c0.7-0.4 1.3-0.9 1.3-1.2 0-0.3-0.2-0.5-0.5-0.5-0.2 0-0.8 0.6-1.2 1.2zm-17 14q-0.8 1.3 0.4 0.5c0.7-0.4 1.3-0.9 1.3-1.2 0-0.3-0.2-0.5-0.5-0.5-0.2 0-0.8 0.6-1.2 1.2zm11 5q-0.8 1.3 0.4 0.5c0.7-0.4 1.3-0.9 1.3-1.2 0-0.3-0.2-0.5-0.5-0.5-0.2 0-0.8 0.6-1.2 1.2zm-20.9 7.8c-1.6 1.7-2.5 3-1.9 3 0.5-0.1 2-1.4 3.3-3.1 1.2-1.6 2.1-2.9 1.9-2.9-0.2 0-1.7 1.4-3.3 3zm5.8 0.7c0.5 0.5 1.1 0.5 1.5 0.1 0.3-0.5 0-0.8-0.8-0.8-0.8 0-1.1 0.3-0.7 0.7z"/>
		<path id="Path 14" class="s4" d="m37.3 7.7c0.4 0.5 1 0.5 1.4 0 0.3-0.4 0-0.7-0.8-0.7-0.8 0-1.1 0.3-0.6 0.7zm18.7 0c0.8 0.2 1.7 0.2 1.9-0.1 0.2-0.3-0.4-0.6-1.5-0.5-1.4 0-1.5 0.2-0.4 0.6zm14.9 15.1c-1.3 1.6-1.3 1.6 0.4 0.2 1-0.8 1.8-1.6 1.7-1.7 0-0.2-0.2-0.3-0.4-0.3-0.2 0-1 0.8-1.7 1.8zm-24.8 5.7c0 1.1 0.2 1.4 0.3 0.7 0.1-0.7 0.1-1.6-0.1-2-0.2-0.4-0.3 0.2-0.2 1.3zm18.8 0.2c-1.3 1.7-1.3 1.7 0.4 0.3 1-0.8 1.8-1.6 1.7-1.8 0-0.1-0.2-0.2-0.4-0.2-0.2 0-1 0.8-1.7 1.8zm-5.6 4.4q-0.8 1.3 0.5 0.5c0.6-0.4 1.2-0.9 1.2-1.2 0-0.3-0.2-0.5-0.5-0.5-0.2 0-0.8 0.6-1.2 1.2zm-13.2 3.3c0 1.1 0.2 1.4 0.3 0.7 0.1-0.7 0.1-1.6-0.1-2-0.2-0.4-0.3 0.2-0.2 1.3zm9.2-0.3q-0.8 1.3 0.5 0.5c0.6-0.4 1.2-0.9 1.2-1.2 0-0.3-0.2-0.5-0.5-0.5-0.2 0-0.8 0.6-1.2 1.2zm-4 3q-0.8 1.3 0.5 0.5c0.6-0.4 1.2-0.9 1.2-1.2 0-0.3-0.2-0.5-0.5-0.5-0.2 0-0.8 0.6-1.2 1.2z"/>
		<path id="Path 15" class="s11" d="m110.1 93.9c-3.3 2.5-8.5 6.3-11.6 8.3-3.7 2.6-7.9 7-13 13.8-4.1 5.5-7 10-6.5 10 0.6 0 3.6-1 6.8-2.2 3.1-1.1 7.5-3.2 9.7-4.6 2.2-1.4 6.4-4.9 9.3-7.9 3.3-3.4 6.5-8 8.7-12.8 1.9-4.1 3.3-7.9 3.1-8.3-0.2-0.5-3.2 1.2-6.5 3.7z"/>
		<path id="Path 16" class="s12" d="m37.7 7.7c-1.7 0.7-1.6 1 0.8 3.3 1.5 1.4 3.9 4.8 5.3 7.5 2 4 2.5 6.5 2.6 12.5 0.1 4.1-0.2 8.7-0.7 10.3-0.6 2.4 0.2 2 9-4.7 5.4-4 11.2-8.6 12.8-10.2 1.7-1.6 4.5-5.2 6.4-7.9 1.8-2.8 2.9-5.3 2.5-5.7-0.5-0.3-4.1-1.6-7.9-2.8-4.6-1.4-10.8-2.3-18-2.6-6.1-0.2-11.8-0.1-12.8 0.3z"/>
		<path id="Path 17" class="s13" d="m81.8 23.3c-1.4 2.3-4.8 6.3-7.5 8.8-2.6 2.5-9.8 7.8-15.8 11.9-6 4-14.1 9.9-18 13-3.8 3.2-9.7 8.8-12.9 12.6-3.3 3.8-8.5 9.5-11.5 12.6l-5.6 5.8c1.9 5.8 4.2 10.2 6.3 13.5 2.2 3.3 5.3 7.3 7 9l3.1 3c8.9-7.8 14-13.2 17-17.1 3.1-3.9 7.6-9.9 10.1-13.4 2.5-3.5 7-8.6 10.1-11.4 3.1-2.8 11-8 17.5-11.6 6.6-3.6 14.2-8.6 16.9-11.2 2.8-2.5 5.8-6 6.8-7.7l1.7-3.1c-8.1-8.8-12.6-13.1-15.2-15.2-2.7-2.1-5.4-3.8-6.1-3.8-0.7 0-2.5 1.9-3.9 4.3z"/>
	</g>
</svg>