<svg version="1.1" id="Layer_1" xmlns="http://www.w3.org/2000/svg" xmlns:xlink="http://www.w3.org/1999/xlink" x="0px" y="0px"
	 width="100%" viewBox="0 0 128 128" enable-background="new 0 0 128 128" xml:space="preserve">
<path fill="#272525" opacity="1.000000" stroke="none" 
	d="
M55.000000,129.000000 
	C37.028671,129.000000 19.057346,129.000000 1.043009,129.000000 
	C1.043009,86.430008 1.043009,43.859962 1.043009,1.000000 
	C31.686953,1.000000 62.374817,1.000000 93.630814,1.393403 
	C92.115067,8.397264 92.840210,10.566807 98.221565,15.216076 
	C102.257004,18.702528 106.133682,22.372728 109.911942,25.807398 
	C112.399513,19.480381 111.669395,16.436762 105.940468,11.714321 
	C103.895691,10.028780 101.449387,8.765182 99.646729,6.870888 
	C98.091782,5.236886 97.190353,2.980968 96.000000,0.999999 
	C106.978569,1.000000 117.957146,1.000000 128.967865,1.000000 
	C128.967865,43.562099 128.967865,86.124229 128.967865,129.000000 
	C107.980148,129.000000 86.958733,129.000000 65.365776,128.659912 
	C71.415237,120.676910 77.954826,112.961067 84.700577,105.429886 
	C87.122787,102.725647 89.917885,100.312019 92.757286,98.032974 
	C101.321259,91.159081 110.026833,84.461479 118.581520,77.576263 
	C119.933723,76.487938 121.617760,74.852043 121.741905,73.352844 
	C122.575775,63.282879 120.773254,53.652340 116.098389,43.887878 
	C109.883064,53.301167 102.229065,60.050945 92.736732,64.509895 
	C77.729530,71.559402 65.982910,81.951530 56.690712,95.835274 
	C50.794102,104.645584 42.847294,112.083733 35.648220,120.334007 
	C37.757275,121.412872 40.202053,122.810158 42.764568,123.940559 
	C46.801441,125.721352 50.917477,127.322693 55.000000,129.000000 
M117.356773,90.193306 
	C114.570114,92.286446 112.001007,94.790283 108.959145,96.401672 
	C95.750130,103.398903 87.126335,114.839081 78.538071,127.224274 
	C80.704636,126.844612 82.501320,126.722778 84.175690,126.205231 
	C95.537079,122.693497 104.874466,116.192719 111.068367,106.030464 
	C114.075256,101.097107 115.696266,95.319054 118.279991,90.125267 
	C118.190338,90.088303 118.100677,90.051331 117.356773,90.193306 
M53.831810,48.309307 
	C51.792423,49.747620 49.505753,50.935398 47.753635,52.664761 
	C36.059883,64.206635 24.446510,75.831001 12.935139,87.554367 
	C12.119308,88.385223 11.762816,90.409042 12.147335,91.558945 
	C15.155080,100.553581 20.234295,108.167061 27.807142,114.327393 
	C36.510082,108.554703 43.478901,101.332550 48.742702,92.863831 
	C58.182865,77.675972 70.758148,66.447289 86.928604,58.912148 
	C94.842979,55.224194 101.904243,50.159016 106.462540,42.400425 
	C107.175026,41.187706 107.727577,38.728573 107.084198,38.050213 
	C100.742325,31.363628 94.132004,24.931656 87.373810,18.204531 
	C83.127708,23.489353 80.349953,28.219238 76.404358,31.576689 
	C69.466331,37.480511 61.814125,42.545040 53.831810,48.309307 
M76.072433,18.650572 
	C76.920341,17.250887 77.768242,15.851203 78.784630,14.173391 
	C65.330193,7.928390 51.517975,6.640779 35.877178,8.677744 
	C47.520500,19.153246 49.492599,31.137377 45.483025,45.764008 
	C56.842461,37.042301 68.280609,30.498140 76.072433,18.650572 
M13.437827,75.913559 
	C20.483633,67.652718 27.529440,59.391880 34.575249,51.131039 
	C35.035065,52.124432 35.494884,53.117828 35.954700,54.111221 
	C32.299057,52.209351 27.548502,51.136520 25.301083,48.168373 
	C23.129395,45.300243 23.537209,40.478966 22.854704,36.749397 
	C12.993417,45.748962 6.064920,67.940491 10.196622,78.559761 
	C11.140870,77.814919 12.035544,77.109184 13.437827,75.913559 
z"/>
<path fill="#9E46EA" opacity="1.000000" stroke="none" 
	d="
M55.454109,129.000000 
	C50.917477,127.322693 46.801441,125.721352 42.764568,123.940559 
	C40.202053,122.810158 37.757275,121.412872 35.648220,120.334007 
	C42.847294,112.083733 50.794102,104.645584 56.690712,95.835274 
	C65.982910,81.951530 77.729530,71.559402 92.736732,64.509895 
	C102.229065,60.050945 109.883064,53.301167 116.098389,43.887878 
	C120.773254,53.652340 122.575775,63.282879 121.741905,73.352844 
	C121.617760,74.852043 119.933723,76.487938 118.581520,77.576263 
	C110.026833,84.461479 101.321259,91.159081 92.757286,98.032974 
	C89.917885,100.312019 87.122787,102.725647 84.700577,105.429886 
	C77.954826,112.961067 71.415237,120.676910 64.897118,128.659912 
	C61.969406,129.000000 58.938812,129.000000 55.454109,129.000000 
z"/>
<path fill="#F4D146" opacity="1.000000" stroke="none" 
	d="
M95.666672,0.999999 
	C97.190353,2.980968 98.091782,5.236886 99.646729,6.870888 
	C101.449387,8.765182 103.895691,10.028780 105.940468,11.714321 
	C111.669395,16.436762 112.399513,19.480381 109.911942,25.807398 
	C106.133682,22.372728 102.257004,18.702528 98.221565,15.216076 
	C92.840210,10.566807 92.115067,8.397264 94.099472,1.393403 
	C94.444443,1.000000 94.888893,1.000000 95.666672,0.999999 
z"/>
<path fill="#EC1E62" opacity="1.000000" stroke="none" 
	d="
M54.146408,48.135178 
	C61.814125,42.545040 69.466331,37.480511 76.404358,31.576689 
	C80.349953,28.219238 83.127708,23.489353 87.373810,18.204531 
	C94.132004,24.931656 100.742325,31.363628 107.084198,38.050213 
	C107.727577,38.728573 107.175026,41.187706 106.462540,42.400425 
	C101.904243,50.159016 94.842979,55.224194 86.928604,58.912148 
	C70.758148,66.447289 58.182865,77.675972 48.742702,92.863831 
	C43.478901,101.332550 36.510082,108.554703 27.807142,114.327393 
	C20.234295,108.167061 15.155080,100.553581 12.147335,91.558945 
	C11.762816,90.409042 12.119308,88.385223 12.935139,87.554367 
	C24.446510,75.831001 36.059883,64.206635 47.753635,52.664761 
	C49.505753,50.935398 51.792423,49.747620 54.146408,48.135178 
z"/>
<path fill="#FA9448" opacity="1.000000" stroke="none" 
	d="
M75.885666,18.948338 
	C68.280609,30.498140 56.842461,37.042301 45.483025,45.764008 
	C49.492599,31.137377 47.520500,19.153246 35.877178,8.677744 
	C51.517975,6.640779 65.330193,7.928390 78.784630,14.173391 
	C77.768242,15.851203 76.920341,17.250887 75.885666,18.948338 
z"/>
<path fill="#F6602D" opacity="1.000000" stroke="none" 
	d="
M13.184023,76.158508 
	C12.035544,77.109184 11.140870,77.814919 10.196622,78.559761 
	C6.064920,67.940491 12.993417,45.748962 22.854704,36.749397 
	C23.537209,40.478966 23.129395,45.300243 25.301083,48.168373 
	C27.548502,51.136520 32.299057,52.209351 35.954700,54.111221 
	C35.494884,53.117828 35.035065,52.124432 34.575249,51.131039 
	C27.529440,59.391880 20.483633,67.652718 13.184023,76.158508 
z"/>
<path fill="#6F50CC" opacity="1.000000" stroke="none" 
	d="
M117.944679,89.923409 
	C115.696266,95.319054 114.075256,101.097107 111.068367,106.030464 
	C104.874466,116.192719 95.537079,122.693497 84.175690,126.205231 
	C82.501320,126.722778 80.704636,126.844612 78.538071,127.224274 
	C87.126335,114.839081 95.750130,103.398903 108.959145,96.401672 
	C112.001007,94.790283 114.570114,92.286446 117.666794,90.081482 
	C117.976807,89.969650 117.944679,89.923409 117.944679,89.923409 
z"/>
<path fill="#6F50CC" opacity="1.000000" stroke="none" 
	d="
M117.993912,89.992004 
	C118.100677,90.051331 118.190338,90.088303 118.112335,90.024338 
	C117.944679,89.923409 117.976807,89.969650 117.993912,89.992004 
z"/>
</svg>